<svg width="800" height="520" viewBox="0 0 800 520" fill="none" xmlns="http://www.w3.org/2000/svg">
  <rect width="800" height="520" rx="34" fill="#0B1016"/>
  <rect x="36" y="36" width="728" height="448" rx="28" fill="#161E28" stroke="#2C4259"/>
  <rect x="74" y="86" width="118" height="34" rx="17" fill="#7BB8FF" fill-opacity="0.18"/>
  <text x="102" y="108" fill="#EBF5FF" font-family="Arial, sans-serif" font-size="13" letter-spacing="2">FINANCE</text>
  <text x="74" y="172" fill="#F5F9FF" font-family="Arial, sans-serif" font-size="38" font-weight="700">HMFS Platform</text>
  <text x="74" y="216" fill="#ADC0D5" font-family="Arial, sans-serif" font-size="22">CMS-backed investor and service workflows</text>
  <rect x="74" y="280" width="652" height="138" rx="24" fill="#10161D" stroke="#223446"/>
  <rect x="102" y="316" width="186" height="18" rx="9" fill="#7BB8FF"/>
  <rect x="102" y="352" width="286" height="12" rx="6" fill="#7088A3"/>
  <rect x="102" y="378" width="234" height="12" rx="6" fill="#45586E"/>
  <rect x="504" y="98" width="190" height="130" rx="24" fill="#111821" stroke="#223446"/>
  <rect x="532" y="128" width="62" height="70" rx="18" fill="#7BB8FF" fill-opacity="0.15"/>
  <path d="M611 188L624 156L638 175L651 142L664 188" stroke="#7BB8FF" stroke-width="8" stroke-linecap="round" stroke-linejoin="round"/>
</svg>
