<svg width="800" height="520" viewBox="0 0 800 520" fill="none" xmlns="http://www.w3.org/2000/svg">
  <rect width="800" height="520" rx="34" fill="#11100D"/>
  <rect x="36" y="36" width="728" height="448" rx="28" fill="#221D18" stroke="#5A4430"/>
  <rect x="74" y="86" width="120" height="34" rx="17" fill="#FFB86E" fill-opacity="0.2"/>
  <text x="100" y="108" fill="#FFF3E4" font-family="Arial, sans-serif" font-size="13" letter-spacing="2">QUALITY</text>
  <text x="74" y="172" fill="#FFF8F1" font-family="Arial, sans-serif" font-size="38" font-weight="700">Masters Patches ERP</text>
  <text x="74" y="216" fill="#D2B99F" font-family="Arial, sans-serif" font-size="22">Orders, production reporting, partner portals</text>
  <rect x="74" y="280" width="652" height="138" rx="24" fill="#171410" stroke="#493828"/>
  <rect x="102" y="316" width="208" height="18" rx="9" fill="#FFB86E"/>
  <rect x="102" y="352" width="302" height="12" rx="6" fill="#A98867"/>
  <rect x="102" y="378" width="248" height="12" rx="6" fill="#6F563F"/>
  <rect x="506" y="102" width="186" height="122" rx="24" fill="#17130F" stroke="#493828"/>
  <rect x="534" y="130" width="54" height="66" rx="14" fill="#FFB86E" fill-opacity="0.14"/>
  <rect x="608" y="138" width="50" height="10" rx="5" fill="#FFEED8"/>
  <rect x="608" y="160" width="42" height="10" rx="5" fill="#AE8A67"/>
  <rect x="608" y="182" width="36" height="10" rx="5" fill="#7F654D"/>
</svg>
