<svg width="800" height="520" viewBox="0 0 800 520" fill="none" xmlns="http://www.w3.org/2000/svg">
  <rect width="800" height="520" rx="34" fill="#0A1412"/>
  <rect x="36" y="36" width="728" height="448" rx="28" fill="#14231F" stroke="#274843"/>
  <rect x="74" y="86" width="108" height="34" rx="17" fill="#5BE4D1" fill-opacity="0.2"/>
  <text x="97" y="108" fill="#E8FBF8" font-family="Arial, sans-serif" font-size="13" letter-spacing="2">PORTAL</text>
  <text x="74" y="172" fill="#F4FBFA" font-family="Arial, sans-serif" font-size="42" font-weight="700">Multi-Tenant Portal</text>
  <text x="74" y="216" fill="#A5C6C1" font-family="Arial, sans-serif" font-size="22">RBAC, dashboards, and team reporting</text>
  <rect x="74" y="280" width="652" height="138" rx="24" fill="#101A18" stroke="#21403B"/>
  <rect x="102" y="316" width="206" height="18" rx="9" fill="#5BE4D1"/>
  <rect x="102" y="352" width="290" height="12" rx="6" fill="#608781"/>
  <rect x="102" y="378" width="252" height="12" rx="6" fill="#395853"/>
  <rect x="498" y="98" width="196" height="132" rx="28" fill="#0F1715" stroke="#21403B"/>
  <rect x="526" y="126" width="58" height="76" rx="16" fill="#5BE4D1" fill-opacity="0.18"/>
  <rect x="602" y="134" width="58" height="12" rx="6" fill="#D8F6F1"/>
  <rect x="602" y="160" width="46" height="12" rx="6" fill="#6A958E"/>
  <rect x="602" y="186" width="52" height="12" rx="6" fill="#486762"/>
</svg>
