<svg width="800" height="520" viewBox="0 0 800 520" fill="none" xmlns="http://www.w3.org/2000/svg">
  <rect width="800" height="520" rx="34" fill="#0B1317"/>
  <rect x="36" y="36" width="728" height="448" rx="28" fill="#152227" stroke="#27454E"/>
  <rect x="74" y="86" width="112" height="34" rx="17" fill="#59D6FF" fill-opacity="0.18"/>
  <text x="101" y="108" fill="#E7F9FF" font-family="Arial, sans-serif" font-size="13" letter-spacing="2">HEALTH</text>
  <text x="74" y="172" fill="#F4FCFF" font-family="Arial, sans-serif" font-size="38" font-weight="700">Premier Physicians Portal</text>
  <text x="74" y="216" fill="#A6C1CB" font-family="Arial, sans-serif" font-size="22">Appointments, RBAC, and patient workflows</text>
  <rect x="74" y="280" width="652" height="138" rx="24" fill="#10181C" stroke="#203A42"/>
  <rect x="102" y="316" width="198" height="18" rx="9" fill="#59D6FF"/>
  <rect x="102" y="352" width="302" height="12" rx="6" fill="#688A95"/>
  <rect x="102" y="378" width="250" height="12" rx="6" fill="#3D5B64"/>
  <rect x="510" y="102" width="180" height="122" rx="24" fill="#111B20" stroke="#203A42"/>
  <path d="M565 136H591V154H609V180H591V198H565V180H547V154H565V136Z" fill="#59D6FF" fill-opacity="0.22"/>
  <rect x="624" y="146" width="36" height="10" rx="5" fill="#DDF5FF"/>
  <rect x="624" y="168" width="28" height="10" rx="5" fill="#7197A4"/>
</svg>
