<svg width="800" height="520" viewBox="0 0 800 520" fill="none" xmlns="http://www.w3.org/2000/svg">
  <rect width="800" height="520" rx="34" fill="#0C1411"/>
  <rect x="36" y="36" width="728" height="448" rx="28" fill="#15261F" stroke="#21493E"/>
  <rect x="74" y="86" width="122" height="34" rx="17" fill="#36E9AE" fill-opacity="0.18"/>
  <text x="98" y="108" fill="#DFF8EE" font-family="Arial, sans-serif" font-size="13" letter-spacing="2">COMMERCE</text>
  <text x="74" y="172" fill="#F4FBF7" font-family="Arial, sans-serif" font-size="42" font-weight="700">YesStyle eCommerce</text>
  <text x="74" y="216" fill="#A8C7BA" font-family="Arial, sans-serif" font-size="22">High-traffic discovery, cart, and storefront UX</text>
  <rect x="74" y="280" width="652" height="138" rx="24" fill="#0F1714" stroke="#1F352E"/>
  <rect x="102" y="316" width="210" height="18" rx="9" fill="#36E9AE"/>
  <rect x="102" y="352" width="312" height="12" rx="6" fill="#5E8072"/>
  <rect x="102" y="378" width="254" height="12" rx="6" fill="#35554A"/>
  <rect x="516" y="106" width="170" height="116" rx="24" fill="#101915" stroke="#1F352E"/>
  <rect x="536" y="126" width="60" height="76" rx="18" fill="#36E9AE" fill-opacity="0.12"/>
  <rect x="612" y="138" width="44" height="10" rx="5" fill="#CBE9DC"/>
  <rect x="612" y="160" width="38" height="10" rx="5" fill="#5D7F72"/>
</svg>
